# xmcd
#
# Track frame offsets: 
#        150
#        17319
#        34916
#        52822
#        69964
#        89303
#        102338
#        126606
#        142398
#        162460
#        180661
#        201466
#        223212
#        245296
#        264313
#        279203
#        294214
#        311204
#        333010
#
# Disc length: 4674 seconds
#
# Revision: 0
# Processed by: cddbd v1.5.2PL0 Copyright (c) Steve Scherf et al.
# Submitted via: ExactAudioCopy v1.1
#
DISCID=1b124013
DTITLE=Various Artist - Q-Music Top 500 Van De 90's 2018 - CD 5
DYEAR=2018
DGENRE=Top 40
TTITLE0=Snap! - The Power
TTITLE1=Crash Test Dummies - Mmm Mmm Mmm Mmm
TTITLE2=Boyz II Men - I'll Make Love to You
TTITLE3=The Scene - Iedereen Is Van De Wereld
TTITLE4=Joan Osborne - One Of Us
TTITLE5=Ann Lee - 2 Times
TTITLE6=Bad English - Time Stood Still
TTITLE7=Montell Jordan - This Is How We Do It
TTITLE8=Soul Asylum - Runaway Train
TTITLE9=2 Unlimited - Nothing Like The Rain
TTITLE10=Lighthouse Family - High
TTITLE11=Lionel Richie - My Destiny
TTITLE12=Is Ook Schitterend! - Voltooid Verleden Tijd
TTITLE13=Warren G and Nate Dogg - Regulate
TTITLE14=Az Yet Feat. Peter Cetera - Hard To Say I'm Sorry
TTITLE15=DJ Paul Elstak - The Promised Land
TTITLE16=CeCe Peniston - Finally
TTITLE17=Manic Street Preachers - If You Tolerate This Your Children W
TTITLE17=ill Be Next
TTITLE18=Duke - So In Love With You
EXTD=
EXTT0=
EXTT1=
EXTT2=
EXTT3=
EXTT4=
EXTT5=
EXTT6=
EXTT7=
EXTT8=
EXTT9=
EXTT10=
EXTT11=
EXTT12=
EXTT13=
EXTT14=
EXTT15=
EXTT16=
EXTT17=
EXTT18=
PLAYORDER=
